<svg width="109" height="22" viewBox="0 0 109 22" fill="none" xmlns="http://www.w3.org/2000/svg">
<path d="M18 10C18 15.55 14.16 20.74 9 22C3.84 20.74 0 15.55 0 10V4L9 0L18 4V10ZM9 20C12.75 19 16 14.54 16 10.22V5.3L9 2.18L2 5.3V10.22C2 14.54 5.25 19 9 20ZM12.05 15L8.97 13.15L5.9 15L6.71 11.5L4 9.16L7.58 8.85L8.97 5.55L10.37 8.84L13.95 9.15L11.23 11.5L12.05 15Z" fill="url(#paint0_linear_12_50)"/>
<path d="M27.1477 16.5V4.86364H34.7159V6.63068H29.2557V9.78977H34.3239V11.5568H29.2557V14.733H34.7614V16.5H27.1477ZM43.6733 10.0795L41.7983 10.2841C41.7453 10.0947 41.6525 9.91667 41.5199 9.75C41.3911 9.58333 41.2169 9.44886 40.9972 9.34659C40.7775 9.24432 40.5085 9.19318 40.1903 9.19318C39.7623 9.19318 39.4025 9.28598 39.1108 9.47159C38.8229 9.6572 38.6809 9.89773 38.6847 10.1932C38.6809 10.447 38.7737 10.6534 38.9631 10.8125C39.1563 10.9716 39.4744 11.1023 39.9176 11.2045L41.4062 11.5227C42.232 11.7008 42.8456 11.983 43.2472 12.3693C43.6525 12.7557 43.857 13.2614 43.8608 13.8864C43.857 14.4356 43.696 14.9205 43.3778 15.3409C43.0634 15.7576 42.6259 16.0833 42.0653 16.3182C41.5047 16.553 40.8608 16.6705 40.1335 16.6705C39.0653 16.6705 38.2055 16.447 37.554 16C36.9025 15.5492 36.5142 14.9223 36.3892 14.1193L38.3949 13.9261C38.4858 14.3201 38.679 14.6174 38.9744 14.8182C39.2699 15.0189 39.6544 15.1193 40.1278 15.1193C40.6165 15.1193 41.0085 15.0189 41.304 14.8182C41.6032 14.6174 41.7528 14.3693 41.7528 14.0739C41.7528 13.8239 41.6563 13.6174 41.4631 13.4545C41.2737 13.2917 40.9782 13.1667 40.5767 13.0795L39.0881 12.767C38.2509 12.5928 37.6316 12.2992 37.2301 11.8864C36.8286 11.4697 36.6297 10.9432 36.6335 10.3068C36.6297 9.76894 36.7756 9.30303 37.071 8.90909C37.3703 8.51136 37.785 8.20455 38.3153 7.98864C38.8494 7.76894 39.465 7.65909 40.1619 7.65909C41.1847 7.65909 41.9896 7.87689 42.5767 8.3125C43.1676 8.74811 43.5331 9.33712 43.6733 10.0795ZM49.3636 16.6705C48.4924 16.6705 47.7443 16.4792 47.1193 16.0966C46.4981 15.714 46.0189 15.1856 45.6818 14.5114C45.3485 13.8333 45.1818 13.053 45.1818 12.1705C45.1818 11.2841 45.3523 10.5019 45.6932 9.82386C46.0341 9.14205 46.5152 8.61174 47.1364 8.23295C47.7614 7.85038 48.5 7.65909 49.3523 7.65909C50.0606 7.65909 50.6875 7.78977 51.233 8.05114C51.7822 8.30871 52.2197 8.67424 52.5455 9.14773C52.8712 9.61742 53.0568 10.1667 53.1023 10.7955H51.1364C51.0568 10.375 50.8674 10.0246 50.5682 9.74432C50.2727 9.46023 49.8769 9.31818 49.3807 9.31818C48.9602 9.31818 48.5909 9.43182 48.2727 9.65909C47.9545 9.88258 47.7064 10.2045 47.5284 10.625C47.3542 11.0455 47.267 11.5492 47.267 12.1364C47.267 12.7311 47.3542 13.2424 47.5284 13.6705C47.7027 14.0947 47.947 14.4223 48.2614 14.6534C48.5795 14.8807 48.9527 14.9943 49.3807 14.9943C49.6837 14.9943 49.9545 14.9375 50.1932 14.8239C50.4356 14.7064 50.6383 14.5379 50.8011 14.3182C50.964 14.0985 51.0758 13.8314 51.1364 13.517H53.1023C53.053 14.1345 52.8712 14.6818 52.5568 15.1591C52.2424 15.6326 51.8144 16.0038 51.2727 16.2727C50.7311 16.5379 50.0947 16.6705 49.3636 16.6705ZM54.7912 16.5V7.77273H56.7855V9.22727H56.8764C57.0355 8.72348 57.3082 8.33523 57.6946 8.0625C58.0848 7.78598 58.5298 7.64773 59.0298 7.64773C59.1435 7.64773 59.2704 7.65341 59.4105 7.66477C59.5545 7.67235 59.6738 7.68561 59.7685 7.70455V9.59659C59.6813 9.56629 59.5431 9.53977 59.3537 9.51705C59.1681 9.49053 58.9882 9.47727 58.8139 9.47727C58.4389 9.47727 58.1018 9.55871 57.8026 9.72159C57.5071 9.88068 57.2741 10.1023 57.1037 10.3864C56.9332 10.6705 56.848 10.9981 56.848 11.3693V16.5H54.7912ZM64.5824 16.6705C63.7301 16.6705 62.9915 16.483 62.3665 16.108C61.7415 15.733 61.2566 15.2083 60.9119 14.5341C60.571 13.8598 60.4006 13.072 60.4006 12.1705C60.4006 11.2689 60.571 10.4792 60.9119 9.80114C61.2566 9.12311 61.7415 8.59659 62.3665 8.22159C62.9915 7.84659 63.7301 7.65909 64.5824 7.65909C65.4347 7.65909 66.1733 7.84659 66.7983 8.22159C67.4233 8.59659 67.9063 9.12311 68.2472 9.80114C68.5919 10.4792 68.7642 11.2689 68.7642 12.1705C68.7642 13.072 68.5919 13.8598 68.2472 14.5341C67.9063 15.2083 67.4233 15.733 66.7983 16.108C66.1733 16.483 65.4347 16.6705 64.5824 16.6705ZM64.5938 15.0227C65.0559 15.0227 65.4422 14.8958 65.7528 14.642C66.0634 14.3845 66.2945 14.0398 66.446 13.608C66.6013 13.1761 66.679 12.6951 66.679 12.1648C66.679 11.6307 66.6013 11.1477 66.446 10.7159C66.2945 10.2803 66.0634 9.93371 65.7528 9.67614C65.4422 9.41856 65.0559 9.28977 64.5938 9.28977C64.1203 9.28977 63.7263 9.41856 63.4119 9.67614C63.1013 9.93371 62.8684 10.2803 62.7131 10.7159C62.5616 11.1477 62.4858 11.6307 62.4858 12.1648C62.4858 12.6951 62.5616 13.1761 62.7131 13.608C62.8684 14.0398 63.1013 14.3845 63.4119 14.642C63.7263 14.8958 64.1203 15.0227 64.5938 15.0227ZM72.0611 16.5L69.5952 7.77273H71.6918L73.2259 13.9091H73.3054L74.8736 7.77273H76.9474L78.5156 13.875H78.6009L80.1122 7.77273H82.2145L79.7429 16.5H77.6009L75.9645 10.6023H75.8452L74.2088 16.5H72.0611ZM83.7415 16.5V4.86364H88.1051C88.9991 4.86364 89.7491 5.0303 90.3551 5.36364C90.965 5.69697 91.4252 6.1553 91.7358 6.73864C92.0502 7.31818 92.2074 7.97727 92.2074 8.71591C92.2074 9.46212 92.0502 10.125 91.7358 10.7045C91.4214 11.2841 90.9574 11.7405 90.3438 12.0739C89.7301 12.4034 88.9744 12.5682 88.0767 12.5682H85.1847V10.8352H87.7926C88.3153 10.8352 88.7434 10.7443 89.0767 10.5625C89.41 10.3807 89.6563 10.1307 89.8153 9.8125C89.9782 9.49432 90.0597 9.12879 90.0597 8.71591C90.0597 8.30303 89.9782 7.93939 89.8153 7.625C89.6563 7.31061 89.4081 7.06629 89.071 6.89205C88.7377 6.71402 88.3078 6.625 87.7812 6.625H85.8494V16.5H83.7415ZM93.9474 16.5V7.77273H95.9418V9.22727H96.0327C96.1918 8.72348 96.4645 8.33523 96.8509 8.0625C97.241 7.78598 97.6861 7.64773 98.1861 7.64773C98.2997 7.64773 98.4266 7.65341 98.5668 7.66477C98.7107 7.67235 98.83 7.68561 98.9247 7.70455V9.59659C98.8376 9.56629 98.6993 9.53977 98.5099 9.51705C98.3243 9.49053 98.1444 9.47727 97.9702 9.47727C97.5952 9.47727 97.258 9.55871 96.9588 9.72159C96.6634 9.88068 96.4304 10.1023 96.2599 10.3864C96.0895 10.6705 96.0043 10.9981 96.0043 11.3693V16.5H93.9474ZM103.739 16.6705C102.886 16.6705 102.148 16.483 101.523 16.108C100.898 15.733 100.413 15.2083 100.068 14.5341C99.7273 13.8598 99.5568 13.072 99.5568 12.1705C99.5568 11.2689 99.7273 10.4792 100.068 9.80114C100.413 9.12311 100.898 8.59659 101.523 8.22159C102.148 7.84659 102.886 7.65909 103.739 7.65909C104.591 7.65909 105.33 7.84659 105.955 8.22159C106.58 8.59659 107.063 9.12311 107.403 9.80114C107.748 10.4792 107.92 11.2689 107.92 12.1705C107.92 13.072 107.748 13.8598 107.403 14.5341C107.063 15.2083 106.58 15.733 105.955 16.108C105.33 16.483 104.591 16.6705 103.739 16.6705ZM103.75 15.0227C104.212 15.0227 104.598 14.8958 104.909 14.642C105.22 14.3845 105.451 14.0398 105.602 13.608C105.758 13.1761 105.835 12.6951 105.835 12.1648C105.835 11.6307 105.758 11.1477 105.602 10.7159C105.451 10.2803 105.22 9.93371 104.909 9.67614C104.598 9.41856 104.212 9.28977 103.75 9.28977C103.277 9.28977 102.883 9.41856 102.568 9.67614C102.258 9.93371 102.025 10.2803 101.869 10.7159C101.718 11.1477 101.642 11.6307 101.642 12.1648C101.642 12.6951 101.718 13.1761 101.869 13.608C102.025 14.0398 102.258 14.3845 102.568 14.642C102.883 14.8958 103.277 15.0227 103.75 15.0227Z" fill="black"/>
<defs>
<linearGradient id="paint0_linear_12_50" x1="9" y1="-7.46501" x2="9" y2="29.3536" gradientUnits="userSpaceOnUse">
<stop offset="0.2" stop-color="#02534D"/>
<stop offset="0.84" stop-color="#FF9A00"/>
</linearGradient>
</defs>
</svg>
