<svg width="15" height="18" viewBox="0 0 15 18" fill="none" xmlns="http://www.w3.org/2000/svg">
<path d="M15 8.18182C15 12.7227 11.8 16.9691 7.5 18C3.2 16.9691 0 12.7227 0 8.18182V3.27273L7.5 0L15 3.27273V8.18182ZM7.5 16.3636C10.625 15.5455 13.3333 11.8964 13.3333 8.36182V4.33636L7.5 1.78364L1.66667 4.33636V8.36182C1.66667 11.8964 4.375 15.5455 7.5 16.3636ZM10.0417 12.2727L7.475 10.7591L4.91667 12.2727L5.59167 9.40909L3.33333 7.49455L6.31667 7.24091L7.475 4.54091L8.64167 7.23273L11.625 7.48636L9.35833 9.40909L10.0417 12.2727Z" fill="#02534D"/>
</svg>
